<svg id="icon_location" xmlns="http://www.w3.org/2000/svg" width="20" height="20" viewBox="0 0 20 20">
  <rect id="icon_zone" width="23" height="23" fill="rgba(255,255,255,0)"/>
  <path id="Trazado_17" data-name="Trazado 17" d="M8.861,14.187C5.455,14.635,3,15.886,3,17.362c0,1.852,3.861,3.354,8.625,3.354s8.625-1.5,8.625-3.354c0-1.476-2.455-2.726-5.861-3.175" transform="translate(-0.125 -0.591)" fill="none" stroke="#1e293b" stroke-linecap="round" stroke-linejoin="round" stroke-width="1.3"/>
  <path id="Trazado_18" data-name="Trazado 18" d="M17.5,7.59A5.672,5.672,0,0,0,11.75,2,5.672,5.672,0,0,0,6,7.59c0,4.193,5.75,8.785,5.75,8.785S17.5,11.783,17.5,7.59Z" transform="translate(-0.25 -0.083)" fill="none" stroke="#1e293b" stroke-linecap="round" stroke-linejoin="round" stroke-width="1.3"/>
  <path id="Trazado_19" data-name="Trazado 19" d="M13.272,6.561a1.917,1.917,0,1,1-2.711,0,1.917,1.917,0,0,1,2.711,0" transform="translate(-0.417 -0.25)" fill="none" stroke="#1e293b" stroke-linecap="round" stroke-linejoin="round" stroke-width="1.3"/>
</svg>
