<svg id="icon_phone" xmlns="http://www.w3.org/2000/svg" width="20" height="20" viewBox="0 0 20 20">
  <rect id="icon_zone" width="23" height="23" fill="rgba(255,255,255,0)"/>
  <path id="Trazado_14" data-name="Trazado 14" d="M10,4V5.725a.534.534,0,0,0,.479.575h2.875a.534.534,0,0,0,.479-.575V4" transform="translate(-0.417 -0.167)" fill="none" stroke="#1e293b" stroke-linecap="round" stroke-linejoin="round" stroke-width="1.3"/>
  <path id="Trazado_15" data-name="Trazado 15" d="M10.88,17.5h2.147" transform="translate(-0.453 -0.729)" fill="none" stroke="#1e293b" stroke-linecap="round" stroke-linejoin="round" stroke-width="1.3"/>
  <path id="Trazado_16" data-name="Trazado 16" d="M8.917,4h5.75a1.916,1.916,0,0,1,1.917,1.917v11.5a1.916,1.916,0,0,1-1.917,1.917H8.917A1.916,1.916,0,0,1,7,17.417V5.917A1.916,1.916,0,0,1,8.917,4Z" transform="translate(-0.292 -0.167)" fill="none" stroke="#1e293b" stroke-linecap="round" stroke-linejoin="round" stroke-width="1.3"/>
</svg>
