<svg id="icon_work" xmlns="http://www.w3.org/2000/svg" width="20" height="20" viewBox="0 0 20 20">
  <rect id="icon_zone" width="23" height="23" fill="rgba(255,255,255,0)"/>
  <path id="Trazado_20" data-name="Trazado 20" d="M0,0H23V23H0Z" fill="none"/>
  <path id="Trazado_21" data-name="Trazado 21" d="M18.333,20.458H4.917A1.917,1.917,0,0,1,3,18.542H3V9.917H3A1.917,1.917,0,0,1,4.917,8H18.333A1.917,1.917,0,0,1,20.25,9.917v8.625h0a1.917,1.917,0,0,1-1.917,1.917Z" transform="translate(-0.125 -0.333)" fill="none" stroke="#1e293b" stroke-linecap="round" stroke-linejoin="round" stroke-width="1.3"/>
  <path id="Trazado_22" data-name="Trazado 22" d="M15.667,20.292V5.917h0A1.917,1.917,0,0,0,13.75,4H9.917A1.917,1.917,0,0,0,8,5.917H8V20.292" transform="translate(-0.333 -0.167)" fill="none" stroke="#1e293b" stroke-linecap="round" stroke-linejoin="round" stroke-width="1.3"/>
</svg>
